<svg id="Layer_1" data-name="Layer 1" xmlns="http://www.w3.org/2000/svg" xmlns:xlink="http://www.w3.org/1999/xlink" width="321.29mm" height="90.72mm" viewBox="0 0 910.75 257.17"><defs><style>.cls-1{fill:none;}.cls-2{clip-path:url(#clip-path);}.cls-3{fill:#000;}.cls-4{fill:#5fc82b;}.cls-5{fill:#0c48d8;}</style><clipPath id="clip-path" transform="translate(-131.4 -132.2)"><rect class="cls-1" width="1173.54" height="521.58"/></clipPath></defs><title>logo</title><g class="cls-2"><path class="cls-3" d="M1042.15,314.68v-32h-3.42v25.6l-17-25.6h-3.24v32h3.42V289l17,25.7Zm-34.16,0v-3.06H991.52V300.05h14V297h-14V285.7H1008v-3.06H988.1v32Zm-30.42-8.82a8,8,0,0,0-2.7-6.35c-1.35-1.17-2.83-1.8-5.85-2.25l-3.51-.54a9.29,9.29,0,0,1-4.32-1.75,4.64,4.64,0,0,1-1.44-3.69c0-3.56,2.48-5.94,6.75-5.94a10.08,10.08,0,0,1,7.47,2.74l2.21-2.2a12.86,12.86,0,0,0-9.54-3.51c-6.35,0-10.26,3.6-10.26,9a7.58,7.58,0,0,0,2.43,6,11.7,11.7,0,0,0,5.89,2.43l3.74.58c2.34.36,3.15.63,4.18,1.53a5.14,5.14,0,0,1,1.53,4c0,3.73-2.88,5.94-7.56,5.94a11,11,0,0,1-8.73-3.51l-2.34,2.34c3,3,6.17,4.23,11,4.23,6.66,0,11.07-3.47,11.07-9.09m-26.86,8.82v-3.06H934.33v-29h-3.42v32Zm-30.29,0v-3.06H904V300.05h14V297H904V285.7h16.47v-3.06H900.53v32ZM886,291.59c0,3.92-2.66,5.85-6.39,5.85h-8.55V285.7h8.55c3.73,0,6.39,2,6.39,5.89m4,23.09-7.61-14.54a8.31,8.31,0,0,0,7-8.59c0-5.54-3.92-8.91-9.5-8.91H867.64v32h3.42V300.46h7.69L886,314.68Zm-30.78-32h-3.69L848.11,298l-7.56-15.34h-3.69l9.54,18.81v13.23h3.42V301.45ZM831.1,285.7v-3.06h-22v3.06h9.27v29h3.42v-29Zm-27,20.16a8,8,0,0,0-2.7-6.35c-1.35-1.17-2.84-1.8-5.85-2.25l-3.51-.54a9.24,9.24,0,0,1-4.32-1.75,4.64,4.64,0,0,1-1.44-3.69c0-3.56,2.47-5.94,6.75-5.94a10.1,10.1,0,0,1,7.47,2.74l2.2-2.2a12.83,12.83,0,0,0-9.54-3.51c-6.34,0-10.26,3.6-10.26,9a7.58,7.58,0,0,0,2.43,6,11.77,11.77,0,0,0,5.9,2.43l3.73.58c2.34.36,3.15.63,4.19,1.53a5.18,5.18,0,0,1,1.53,4c0,3.73-2.88,5.94-7.56,5.94a11,11,0,0,1-8.73-3.51l-2.34,2.34c3,3,6.16,4.23,11,4.23,6.66,0,11.07-3.47,11.07-9.09m-29.11,0a8,8,0,0,0-2.7-6.35c-1.35-1.17-2.84-1.8-5.85-2.25l-3.51-.54a9.24,9.24,0,0,1-4.32-1.75,4.64,4.64,0,0,1-1.44-3.69c0-3.56,2.47-5.94,6.75-5.94a10.1,10.1,0,0,1,7.47,2.74l2.2-2.2a12.83,12.83,0,0,0-9.54-3.51c-6.34,0-10.26,3.6-10.26,9a7.58,7.58,0,0,0,2.43,6,11.77,11.77,0,0,0,5.9,2.43l3.73.58c2.34.36,3.15.63,4.19,1.53a5.18,5.18,0,0,1,1.53,4c0,3.73-2.88,5.94-7.56,5.94a11,11,0,0,1-8.73-3.51L753,310.72c3,3,6.16,4.23,11,4.23,6.66,0,11.07-3.47,11.07-9.09M744.39,303v-5.09H733.1v3H741v2.43a8.36,8.36,0,0,1-1.8,5.8,8,8,0,0,1-11.61.5c-2-2.07-2.25-4.28-2.25-11s.23-8.87,2.25-10.94a7.76,7.76,0,0,1,5.54-2.29c4,0,6.88,2.47,7.78,6.52h3.42c-.94-5.62-5.08-9.58-11.2-9.58a11.34,11.34,0,0,0-8.19,3.33c-3,3-3,6.16-3,13s0,9.94,3,13a11.74,11.74,0,0,0,16.74-.36c2-2.12,2.74-4.59,2.74-8.28m-33.93,11.7v-32H707v25.6l-17-25.6h-3.24v32h3.42V289l17,25.7Zm-36.31-32h-3.42v32h3.42Zm-16.07,32v-32h-3.42v25.6l-17-25.6h-3.24v32h3.42V289l17,25.7ZM619.56,298.3c0,3.91.09,8.68-2.11,11a8.35,8.35,0,0,1-6.3,2.34h-7V285.7h7a8.35,8.35,0,0,1,6.3,2.34c2.2,2.29,2.11,6.34,2.11,10.26m3.42,0c0-4.46.18-9.36-3.15-12.69a11.17,11.17,0,0,0-8.1-3h-11v32h11a11.21,11.21,0,0,0,8.1-3c3.33-3.33,3.15-9,3.15-13.41m-31.59,16.38v-3.06H575v-29h-3.42v32Zm-32.44-32h-3.42v32H559Zm-18.27,23.08c0,3.6-2.48,5.9-6.44,5.9h-8.73V299.87h8.73c4,0,6.44,2.25,6.44,5.85m-.5-14.49c0,3.83-2.74,5.58-6.3,5.58h-8.37V285.7h8.37c3.56,0,6.3,1.71,6.3,5.53m3.92,14.58a7.75,7.75,0,0,0-5.22-7.6,7.34,7.34,0,0,0,4.72-7c0-5.36-3.87-8.55-9.45-8.55H522.09v32h12.47c5.67,0,9.54-3.06,9.54-8.87M512.73,285.7v-3.06h-22v3.06H500v29h3.42v-29Zm-30.87,18.4V282.64h-3.42v21.19c0,4.86-3.1,8.06-7.78,8.06s-7.74-3.2-7.74-8.06V282.64H459.5V304.1c0,6.39,4.68,10.85,11.16,10.85s11.2-4.46,11.2-10.85" transform="translate(-131.4 -132.2)"/><path class="cls-3" d="M868.05,239.86a8,8,0,0,0-2.7-6.35c-1.35-1.17-2.84-1.8-5.85-2.25l-3.51-.54a9.24,9.24,0,0,1-4.32-1.75,4.64,4.64,0,0,1-1.44-3.69c0-3.56,2.47-5.94,6.75-5.94a10.1,10.1,0,0,1,7.47,2.74l2.2-2.2a12.83,12.83,0,0,0-9.54-3.51c-6.34,0-10.26,3.6-10.26,9a7.58,7.58,0,0,0,2.43,6,11.77,11.77,0,0,0,5.9,2.43l3.73.58c2.34.36,3.15.63,4.19,1.53a5.18,5.18,0,0,1,1.53,4c0,3.73-2.88,5.94-7.56,5.94a11,11,0,0,1-8.73-3.51L846,244.72c3,3,6.16,4.23,11,4.23,6.66,0,11.07-3.47,11.07-9.09m-31.5-1.76V216.64h-3.42v21.19c0,4.86-3.11,8.06-7.79,8.06s-7.74-3.2-7.74-8.06V216.64h-3.42V238.1c0,6.39,4.68,10.85,11.16,10.85s11.21-4.46,11.21-10.85m-31.27-18.4v-3.06h-22v3.06h9.27v29H796v-29ZM774,216.64h-3.42v32H774Zm-12.78,32v-3.06H744.8v-29h-3.42v32Zm-29.16,0v-3.06H715.64v-29h-3.42v32Zm-35.55-10.22h-12l6-16.92Zm7.2,10.22-11.75-32H689l-11.79,32h3.65l2.56-7.25h14l2.56,7.25Zm-35,0v-32h-3.42V231H650.07V216.64h-3.42v32h3.42V234.05h15.21v14.63Zm-32.58-8.82a8,8,0,0,0-2.7-6.35c-1.35-1.17-2.83-1.8-5.85-2.25l-3.51-.54a9.29,9.29,0,0,1-4.32-1.75,4.64,4.64,0,0,1-1.44-3.69c0-3.56,2.48-5.94,6.75-5.94a10.08,10.08,0,0,1,7.47,2.74l2.21-2.2a12.86,12.86,0,0,0-9.54-3.51c-6.35,0-10.26,3.6-10.26,9a7.58,7.58,0,0,0,2.43,6,11.7,11.7,0,0,0,5.89,2.43l3.74.58c2.34.36,3.15.63,4.18,1.53a5.14,5.14,0,0,1,1.53,4c0,3.73-2.88,5.94-7.56,5.94a11,11,0,0,1-8.73-3.51l-2.34,2.34c3,3,6.17,4.23,11,4.23,6.66,0,11.07-3.47,11.07-9.09m-31.5-1.76V216.64H601.2v21.19c0,4.86-3.1,8.06-7.78,8.06s-7.74-3.2-7.74-8.06V216.64h-3.42V238.1c0,6.39,4.68,10.85,11.16,10.85s11.2-4.46,11.2-10.85m-31.27-18.4v-3.06h-22v3.06h9.27v29h3.42v-29Zm-29.16,29v-3.06H527.72V234.05h14V231h-14V219.7h16.47v-3.06H524.3v32ZM511,226c0,4.23-2.79,6.39-6.8,6.39H496V219.7h8.19c4,0,6.8,2.11,6.8,6.34m3.42,0c0-5.76-4-9.4-9.9-9.4H492.57v32H496V235.49h8.51c5.85,0,9.9-3.69,9.9-9.45m-36.68,6.62c0,6.7-.22,8.86-2.25,10.93a7.81,7.81,0,0,1-11.07,0c-2-2.07-2.25-4.23-2.25-10.93s.23-8.87,2.25-10.94a7.83,7.83,0,0,1,11.07,0c2,2.07,2.25,4.23,2.25,10.94m3.42,0c0-6.8,0-9.95-3-13a11.74,11.74,0,0,0-16.38,0c-3,3-3,6.16-3,13s0,9.94,3,13a11.74,11.74,0,0,0,16.38,0c3-3,3-6.17,3-13" transform="translate(-131.4 -132.2)"/><path class="cls-4" d="M206.07,206.21c20.19-40.66,50.6-76.21,30.42-73.9a100.29,100.29,0,0,0-32.91,10.14,117.54,117.54,0,0,1,14.36-5.87S176.06,153.81,160.42,203a128,128,0,0,1,20.72-16.18c34.74-22-.61,22-8.37,77.66,7-9,15.8-23,25.84-38.3a110.8,110.8,0,0,1,7.46-20m109.56-5.64c-8.1-2.32-16.52,2.4-25,11.45-3,7.3-6.08,15.53-9.29,24.87-13.52,39.26-30.37,112-55,103a30.14,30.14,0,0,1-6.12-3c-3.69,6.11-7.11,10.92-10.21,13.87a32.85,32.85,0,0,1-9.28,6.34c46.68,45.95,132.65,44,127.76-13.09-6-69.91-5.39-98.11-4.85-140.18a30.54,30.54,0,0,0-8-3.22m78.77,58.95A137.21,137.21,0,0,0,391,230.27c-8.12-35.61-39.41-77.59-57-74.85-3.71.58-10.19,1.8-19,12.2,3.17,3.94,6.41,8.3,9.68,12.91,6.45-64.24,45.68,15.84,56.06,84a11.94,11.94,0,0,0,5.61,2.62c6.87,1.43,8-6.29,8.1-7.6" transform="translate(-131.4 -132.2)"/><path class="cls-5" d="M297.35,150.29c-59.5-36.23-135.22,167.4-140.89,116.2-14.63-98.67,61.48-129.91,61.48-129.91C169,152.76,130.54,202.53,131.41,260c.88,57.75,33.11,90.87,44.73,96.61,14.71,7.28,27.56.37,33.9-5.86,24.39-23.19,68.45-160.81,105.59-150.15,41.56,10,36.05,97.61,38.06,114.41,4,33.48,13.37,29.48,26.42,4.88,8.75-16.49,14.44-35.49,14.31-60.55,0,0-.62,9.38-8.12,7.81-6.73-1.4-9.25-5.25-26.19-31.75-17.74-27.74-44.86-74.18-62.76-85.08" transform="translate(-131.4 -132.2)"/></g></svg>